<svg xmlns="http://www.w3.org/2000/svg" width="128" height="128" viewBox="0 0 32 32" shape-rendering="crispEdges"><rect width="32" height="32" fill="#ffffff" /><rect x="22" y="7" width="1" height="1" fill="#808080" /><rect x="23" y="7" width="1" height="1" fill="#808080" /><rect x="24" y="7" width="1" height="1" fill="#808080" /><rect x="18" y="8" width="1" height="1" fill="#808080" /><rect x="21" y="8" width="1" height="1" fill="#808080" /><rect x="22" y="8" width="1" height="1" fill="#808080" /><rect x="23" y="8" width="1" height="1" fill="#808080" /><rect x="24" y="8" width="1" height="1" fill="#808080" /><rect x="17" y="9" width="1" height="1" fill="#808080" /><rect x="19" y="9" width="1" height="1" fill="#808080" /><rect x="20" y="9" width="1" height="1" fill="#808080" /><rect x="21" y="9" width="1" height="1" fill="#808080" /><rect x="22" y="9" width="1" height="1" fill="#808080" /><rect x="23" y="9" width="1" height="1" fill="#808080" /><rect x="24" y="9" width="1" height="1" fill="#808080" /><rect x="16" y="10" width="1" height="1" fill="#808080" /><rect x="20" y="10" width="1" height="1" fill="#808080" /><rect x="21" y="10" width="1" height="1" fill="#808080" /><rect x="22" y="10" width="1" height="1" fill="#808080" /><rect x="23" y="10" width="1" height="1" fill="#808080" /><rect x="17" y="11" width="1" height="1" fill="#808080" /><rect x="21" y="11" width="1" height="1" fill="#808080" /><rect x="22" y="11" width="1" height="1" fill="#808080" /><rect x="17" y="12" width="1" height="1" fill="#808080" /><rect x="18" y="12" width="1" height="1" fill="#808080" /><rect x="22" y="12" width="1" height="1" fill="#808080" /><rect x="16" y="13" width="1" height="1" fill="#808080" /><rect x="18" y="13" width="1" height="1" fill="#808080" /><rect x="19" y="13" width="1" height="1" fill="#808080" /><rect x="23" y="13" width="1" height="1" fill="#808080" /><rect x="15" y="14" width="1" height="1" fill="#808080" /><rect x="19" y="14" width="1" height="1" fill="#808080" /><rect x="20" y="14" width="1" height="1" fill="#808080" /><rect x="22" y="14" width="1" height="1" fill="#808080" /><rect x="14" y="15" width="1" height="1" fill="#808080" /><rect x="18" y="15" width="1" height="1" fill="#808080" /><rect x="21" y="15" width="1" height="1" fill="#808080" /><rect x="13" y="16" width="1" height="1" fill="#808080" /><rect x="17" y="16" width="1" height="1" fill="#808080" /><rect x="12" y="17" width="1" height="1" fill="#808080" /><rect x="16" y="17" width="1" height="1" fill="#808080" /><rect x="11" y="18" width="1" height="1" fill="#808080" /><rect x="15" y="18" width="1" height="1" fill="#808080" /><rect x="10" y="19" width="1" height="1" fill="#808080" /><rect x="14" y="19" width="1" height="1" fill="#808080" /><rect x="9" y="20" width="1" height="1" fill="#808080" /><rect x="10" y="20" width="1" height="1" fill="#808080" /><rect x="11" y="20" width="1" height="1" fill="#808080" /><rect x="13" y="20" width="1" height="1" fill="#808080" /><rect x="9" y="21" width="1" height="1" fill="#808080" /><rect x="10" y="21" width="1" height="1" fill="#808080" /><rect x="11" y="21" width="1" height="1" fill="#808080" /><rect x="12" y="21" width="1" height="1" fill="#808080" /><rect x="8" y="22" width="1" height="1" fill="#808080" /><rect x="9" y="22" width="1" height="1" fill="#808080" /><rect x="10" y="22" width="1" height="1" fill="#808080" /><rect x="11" y="22" width="1" height="1" fill="#808080" /><rect x="8" y="23" width="1" height="1" fill="#808080" /><rect x="9" y="23" width="1" height="1" fill="#808080" /></svg>