<svg width="24" height="24" viewBox="0 0 24 24" fill="none" xmlns="http://www.w3.org/2000/svg">
  <path d="M3 14L3 21L10 21" stroke="currentColor" stroke-width="2" stroke-linecap="round" stroke-linejoin="round"/>
  <path d="M20.5 7.5L16.5 3.5C16.1 3.1 15.6 3 15.2 3.3L8.3 10.2C8.1 10.4 8 10.6 8 10.9V13C8 13.6 8.4 14 9 14H11.1C11.4 14 11.6 13.9 11.8 13.7L18.7 6.8C19 6.4 19 5.9 18.6 5.5L18.5 5.4C18.1 5 17.6 5 17.2 5.4L10.3 12.3C10.1 12.5 9.9 12.6 9.6 12.6H7.5C6.7 12.6 6 11.9 6 11.1V9C6 8.7 6.1 8.5 6.3 8.3L13.2 1.4C13.6 1 13.6 0.5 13.2 0.1L13.1 0C12.7 -0.2 12.2 -0.2 11.8 0.2L4.9 7.1C4.7 7.3 4.6 7.5 4.6 7.8V9.9C4.6 10.7 5.3 11.4 6.1 11.4H8.2C8.5 11.4 8.7 11.3 8.9 11.1L15.8 4.2C16.2 3.8 16.7 3.8 17.1 4.2L21.1 8.2C21.5 8.6 21.5 9.1 21.1 9.5L14.2 16.4C14 16.6 13.8 16.7 13.5 16.7H11.4C10.6 16.7 9.9 16 9.9 15.2V13.1C9.9 12.8 10 12.6 10.2 12.4L17.1 5.5" stroke="currentColor" stroke-width="2" stroke-linecap="round" stroke-linejoin="round"/>
</svg>